<svg width="22" height="22" viewBox="0 0 22 22" fill="none" xmlns="http://www.w3.org/2000/svg">
<path d="M10.0388 0.848297C10.2037 0.0508173 11.3426 0.0508138 11.5076 0.848297L12.1619 4.00943C12.3498 4.91768 13.4258 5.31184 14.156 4.7399L16.7156 2.73599C17.3583 2.23258 18.2285 2.973 17.8347 3.68814L16.3083 6.4606C15.8566 7.28109 16.4345 8.28869 17.3708 8.31314L20.5652 8.39615C21.3837 8.41769 21.5804 9.54873 20.8171 9.84537L17.866 10.9919C16.9902 11.3323 16.7888 12.4816 17.4968 13.0993L19.8738 15.1725C20.4899 15.7102 19.9231 16.7056 19.1462 16.4499L16.0789 15.4391C15.194 15.148 14.3125 15.893 14.4519 16.8141L14.9304 19.9723C15.0524 20.7781 13.9821 21.173 13.5515 20.4811L11.8347 17.7213C11.3455 16.9353 10.2009 16.9353 9.71167 17.7213L7.99487 20.4811C7.56429 21.173 6.49403 20.7781 6.61597 19.9723L7.09448 16.8141C7.23388 15.893 6.35242 15.148 5.46753 15.4391L2.40015 16.4499C1.62333 16.7056 1.05645 15.7102 1.67261 15.1725L4.04956 13.0993C4.75762 12.4816 4.55615 11.3323 3.68042 10.9919L0.729248 9.84537C-0.0340151 9.54873 0.162649 8.41769 0.981201 8.39615L4.17554 8.31314C5.11184 8.28869 5.68976 7.28109 5.23804 6.4606L3.71167 3.68814C3.31793 2.973 4.18814 2.23258 4.83081 2.73599L7.39038 4.7399C8.12055 5.31184 9.19662 4.91768 9.38452 4.00943L10.0388 0.848297Z" fill="#DE2255" stroke="black" stroke-width="0.5"/>
</svg>
